<?xml version="1.0" encoding="UTF-8"?>
<!DOCTYPE svg PUBLIC "-//W3C//DTD SVG 1.1//EN" "http://www.w3.org/Graphics/SVG/1.1/DTD/svg11.dtd">
<svg xmlns="http://www.w3.org/2000/svg" version="1.1" width="502px" height="626px" style="shape-rendering:geometricPrecision; text-rendering:geometricPrecision; image-rendering:optimizeQuality; fill-rule:evenodd; clip-rule:evenodd" xmlns:xlink="http://www.w3.org/1999/xlink">
<g><path style="opacity:1" fill="#fdfdfd" d="M -0.5,-0.5 C 166.833,-0.5 334.167,-0.5 501.5,-0.5C 501.5,208.167 501.5,416.833 501.5,625.5C 334.167,625.5 166.833,625.5 -0.5,625.5C -0.5,416.833 -0.5,208.167 -0.5,-0.5 Z"/></g>
<g><path style="opacity:1" fill="#757575" d="M 278.5,4.5 C 281.833,4.5 285.167,4.5 288.5,4.5C 288.666,8.51383 288.499,12.5138 288,16.5C 284.47,25.4229 281.137,34.4229 278,43.5C 280.73,57.9939 276.897,70.1606 266.5,80C 262.151,81.8941 258.151,81.2275 254.5,78C 251.465,74.6298 248.132,71.6298 244.5,69C 237.073,68.1436 229.74,66.8103 222.5,65C 218.387,62.6055 216.554,59.1055 217,54.5C 218.667,51.8333 220.333,49.1667 222,46.5C 233.103,37.3999 243.603,27.5665 253.5,17C 260.878,10.6441 269.212,6.47745 278.5,4.5 Z"/></g>
<g><path style="opacity:1" fill="#757575" d="M 402.5,47.5 C 404.199,47.3398 405.866,47.5065 407.5,48C 418.154,61.6134 424.321,77.1134 426,94.5C 427.115,104.321 426.448,113.988 424,123.5C 420.139,128.017 415.305,130.184 409.5,130C 407.833,127 405.5,124.667 402.5,123C 394.5,122 386.5,121 378.5,120C 372.891,116.723 371.058,111.89 373,105.5C 376.422,100.322 380.089,95.3224 384,90.5C 387.836,79.9837 391.169,69.3171 394,58.5C 395.582,53.7652 398.415,50.0985 402.5,47.5 Z"/></g>
<g><path style="opacity:1" fill="#747474" d="M 206.5,85.5 C 214.863,84.6238 222.863,85.7905 230.5,89C 234.167,89.3333 237.833,89.6667 241.5,90C 257.17,99.8093 267.67,113.643 273,131.5C 276.351,144.968 277.351,158.635 276,172.5C 273.466,182.44 271.132,192.44 269,202.5C 266.867,206.232 265.534,210.232 265,214.5C 258.475,223.063 254.475,232.73 253,243.5C 241.254,258.374 225.921,266.707 207,268.5C 183.734,264.379 165.401,252.712 152,233.5C 149.749,225.456 146.749,217.789 143,210.5C 141.616,190.576 143.282,170.909 148,151.5C 154.075,145.353 158.075,138.019 160,129.5C 163.778,125.534 166.445,120.868 168,115.5C 177.651,101.276 190.484,91.2759 206.5,85.5 Z"/></g>
<g><path style="opacity:1" fill="#757575" d="M 100.5,112.5 C 105.842,113.323 108.508,116.49 108.5,122C 107.279,128.665 105.445,135.165 103,141.5C 102.102,154.192 101.102,166.859 100,179.5C 98.6667,180.833 97.3333,182.167 96,183.5C 91.1439,180.988 85.9773,179.155 80.5,178C 71.1267,177.637 61.7933,178.137 52.5,179.5C 52.2447,176.984 51.4114,174.65 50,172.5C 49.3333,169.167 49.3333,165.833 50,162.5C 60.7738,148.06 72.6071,134.56 85.5,122C 90.5644,118.809 95.5644,115.642 100.5,112.5 Z"/></g>
<g><path style="opacity:1" fill="#747474" d="M 362.5,139.5 C 402.278,138.442 427.444,157.108 438,195.5C 440.104,218.647 435.438,240.314 424,260.5C 411.424,282.744 394.924,301.578 374.5,317C 365.085,320.246 355.419,321.246 345.5,320C 327.396,313.877 312.896,303.044 302,287.5C 296.941,270.183 294.941,252.516 296,234.5C 300.654,212.2 308.654,191.2 320,171.5C 330.088,155.223 344.255,144.557 362.5,139.5 Z"/></g>
<g><path style="opacity:1" fill="#747474" d="M 63.5,193.5 C 91.9732,191.489 114.14,202.156 130,225.5C 151.082,259.055 158.082,295.389 151,334.5C 145.969,341.225 141.969,348.558 139,356.5C 130.901,362.595 123.401,369.428 116.5,377C 109.189,382.701 100.856,385.201 91.5,384.5C 81.5521,384.352 72.2187,381.852 63.5,377C 30.5526,356.955 14.3859,327.455 15,288.5C 14.3333,276.167 14.3333,263.833 15,251.5C 19.7076,222.334 35.8742,203 63.5,193.5 Z"/></g>
<g><path style="opacity:1" fill="#747474" d="M 327.5,436.5 C 326.57,429.223 326.236,421.89 326.5,414.5C 334.509,380.987 353.176,355.154 382.5,337C 405.695,321.829 431.028,315.829 458.5,319C 488.455,325.388 501.955,343.888 499,374.5C 497.223,386.834 492.89,398.167 486,408.5C 471.224,431.866 453.724,453.032 433.5,472C 422.858,480.657 411.525,488.324 399.5,495C 365.375,495.501 342.209,479.667 330,447.5C 328.85,443.888 328.017,440.222 327.5,436.5 Z"/></g>
<g><path style="opacity:1" fill="#747474" d="M 211.5,342.5 C 232.192,341.806 251.526,346.639 269.5,357C 280.15,363.981 288.316,373.148 294,384.5C 302.985,397.789 307.318,412.456 307,428.5C 309.617,431.769 311.283,435.435 312,439.5C 313.012,460.582 317.345,480.915 325,500.5C 332.154,513.807 338.487,527.473 344,541.5C 347.753,555.512 347.253,569.345 342.5,583C 342.96,584.301 343.294,585.634 343.5,587C 341.573,591.355 340.073,595.855 339,600.5C 330.138,610.343 319.638,617.843 307.5,623C 273.384,626.644 241.051,620.644 210.5,605C 199.167,597 187.833,589 176.5,581C 162.438,571.972 147.104,566.305 130.5,564C 105.381,561.481 80.7142,556.814 56.5,550C 38.4472,542.595 23.2805,531.428 11,516.5C 2.34818,501.238 -0.651825,484.905 2,467.5C 3.78262,456.593 9.11596,447.926 18,441.5C 19.0395,439.254 20.2062,437.087 21.5,435C 32.4775,427.678 44.1442,421.678 56.5,417C 79.2043,409.986 101.871,402.653 124.5,395C 135.283,390.11 145.616,384.443 155.5,378C 168.676,368.912 181.676,359.579 194.5,350C 200.032,346.894 205.699,344.394 211.5,342.5 Z"/></g>
<g><path style="opacity:1" fill="#d9d9d9" d="M 326.5,414.5 C 326.236,421.89 326.57,429.223 327.5,436.5C 326.883,436.389 326.383,436.056 326,435.5C 325.179,428.321 325.345,421.321 326.5,414.5 Z"/></g>
</svg>
